<mxfile host="app.diagrams.net" modified="2024-07-29T21:52:41.294Z" agent="Mozilla/5.0 (Windows NT 10.0; Win64; x64) AppleWebKit/537.36 (KHTML, like Gecko) Chrome/127.0.0.0 Safari/537.36" version="23.1.5" etag="SgQiIjfgqsA1BZ7Dz6HX" type="github">
  <diagram name="PÃ¡gina-1" id="QeKErfhtFT0aoFDgVGiP">
    <mxGraphModel>
      <root>
        <mxCell id="0" />
        <mxCell id="1" parent="0" />
      </root>
    </mxGraphModel>
  </diagram>
</mxfile>
